<svg width="16" height="16" viewBox="0 0 16 16" fill="none" xmlns="http://www.w3.org/2000/svg">
<path d="M8.64254 4.22137C8.26689 3.92084 7.73311 3.92085 7.35746 4.22137L3.71936 7.13184C3.47537 7.32704 3.33333 7.62256 3.33333 7.93502V11.6381C3.33333 12.2062 3.79384 12.6667 4.3619 12.6667H5.6381C6.20616 12.6667 6.66667 12.2062 6.66667 11.6381V11.0286C6.66667 10.4605 7.12717 10 7.69524 10H8.30476C8.87283 10 9.33333 10.4605 9.33333 11.0286V11.6381C9.33333 12.2062 9.79384 12.6667 10.3619 12.6667H11.6381C12.2062 12.6667 12.6667 12.2062 12.6667 11.6381V7.76133C12.6667 7.66136 12.6443 7.56265 12.601 7.47252C12.5577 7.38239 12.4947 7.30315 12.4167 7.24067L8.64254 4.22137ZM7.35742 2.51407C7.73309 2.21353 8.2669 2.21355 8.64255 2.51411L13.2493 6.2C13.4834 6.38725 13.6724 6.62473 13.8023 6.89487C13.9323 7.16501 13.9998 7.4609 14 7.76067V12.6667C14 13.0203 13.8595 13.3594 13.6095 13.6095C13.3594 13.8595 13.0203 14 12.6667 14H3.33333C2.97971 14 2.64057 13.8595 2.39052 13.6095C2.14048 13.3594 2 13.0203 2 12.6667V7.44067C2.00002 7.24082 2.04497 7.04354 2.13152 6.86341C2.21807 6.68328 2.344 6.5249 2.5 6.4L7.35742 2.51407Z" fill="black"/>
</svg>
