<svg width="71" height="26" viewBox="0 0 71 26" fill="none" xmlns="http://www.w3.org/2000/svg">
<path d="M36.4095 18.605C36.4695 18.719 36.4995 18.977 36.4995 19.379V23.663H35.3115V9.62302H36.6435V14.582C36.6435 15.116 36.6945 15.611 36.7965 16.067C36.8985 16.523 37.0635 16.922 37.2915 17.264C37.5195 17.6 37.8105 17.861 38.1645 18.047C38.5245 18.233 38.9595 18.326 39.4695 18.326C39.9315 18.326 40.3425 18.245 40.7025 18.083C41.0625 17.921 41.3625 17.69 41.6025 17.39C41.8425 17.084 42.0255 16.715 42.1515 16.283C42.2775 15.845 42.3405 15.353 42.3405 14.807V9.62302H43.6635V19.343H42.4755V17.966C42.1215 18.506 41.6595 18.911 41.0895 19.181C40.5255 19.451 39.8985 19.586 39.2085 19.586C38.6145 19.586 38.0895 19.478 37.6335 19.262C37.1775 19.046 36.6765 18.611 36.1305 17.957L36.0405 18.029C36.2325 18.299 36.3555 18.491 36.4095 18.605ZM52.6188 18.821C51.9408 19.343 51.0048 19.604 49.8108 19.604C48.6708 19.604 47.7318 19.358 46.9938 18.866C46.2618 18.374 45.8058 17.648 45.6258 16.688L46.9938 16.589C47.1378 17.141 47.4648 17.582 47.9748 17.912C48.4908 18.236 49.1268 18.398 49.8828 18.398C50.6208 18.398 51.2028 18.245 51.6288 17.939C52.0548 17.627 52.2678 17.204 52.2678 16.67C52.2678 16.37 52.1988 16.127 52.0608 15.941C51.9288 15.749 51.6558 15.572 51.2418 15.41C50.8278 15.248 50.2098 15.056 49.3878 14.834C48.5058 14.594 47.8158 14.354 47.3178 14.114C46.8198 13.874 46.4658 13.598 46.2558 13.286C46.0458 12.968 45.9408 12.581 45.9408 12.125C45.9408 11.573 46.0968 11.09 46.4088 10.676C46.7208 10.256 47.1528 9.93202 47.7048 9.70402C48.2568 9.47002 48.8988 9.35302 49.6308 9.35302C50.3628 9.35302 51.0168 9.47302 51.5928 9.71302C52.1748 9.94702 52.6428 10.277 52.9968 10.703C53.3508 11.129 53.5608 11.672 53.6268 12.332L52.2768 12.431C52.1868 11.861 51.9018 11.411 51.4218 11.081C50.9478 10.745 50.3448 10.571 49.6128 10.559C48.9228 10.541 48.3618 10.673 47.9298 10.955C47.4978 11.231 47.2818 11.6 47.2818 12.062C47.2818 12.32 47.3598 12.542 47.5158 12.728C47.6718 12.908 47.9538 13.079 48.3618 13.241C48.7758 13.403 49.3638 13.58 50.1258 13.772C51.0198 14 51.7218 14.24 52.2318 14.492C52.7418 14.744 53.1048 15.041 53.3208 15.383C53.5368 15.725 53.6448 16.148 53.6448 16.652C53.6448 17.57 53.3028 18.293 52.6188 18.821ZM57.1439 6.29302V7.77802H55.8209V6.29302H57.1439ZM57.1439 9.62302V19.343H55.8209V9.62302H57.1439ZM65.683 18.938C65.107 19.388 64.417 19.613 63.613 19.613C62.701 19.613 61.924 19.388 61.282 18.938C60.64 18.482 60.148 17.867 59.806 17.093C59.47 16.319 59.302 15.446 59.302 14.474C59.302 13.508 59.47 12.638 59.806 11.864C60.148 11.09 60.637 10.478 61.273 10.028C61.909 9.57802 62.671 9.35302 63.559 9.35302C64.381 9.35302 65.086 9.57502 65.674 10.019C66.262 10.463 66.709 11.072 67.015 11.846C67.327 12.614 67.483 13.49 67.483 14.474C67.483 15.44 67.327 16.313 67.015 17.093C66.709 17.867 66.265 18.482 65.683 18.938ZM62.029 17.867C62.473 18.209 63.028 18.38 63.694 18.38C64.372 18.38 64.933 18.212 65.377 17.876C65.821 17.54 66.151 17.078 66.367 16.49C66.583 15.896 66.691 15.224 66.691 14.474C66.691 13.712 66.58 13.04 66.358 12.458C66.142 11.87 65.815 11.411 65.377 11.081C64.939 10.751 64.387 10.586 63.721 10.586C63.037 10.586 62.47 10.757 62.02 11.099C61.576 11.441 61.246 11.906 61.03 12.494C60.814 13.082 60.706 13.742 60.706 14.474C60.706 15.212 60.817 15.878 61.039 16.472C61.261 17.06 61.591 17.525 62.029 17.867ZM66.799 9.62302H67.987V23.663H66.655V18.731C66.655 18.473 66.691 18.242 66.763 18.038C66.841 17.834 66.949 17.615 67.087 17.381H66.655V11.639H67.123C66.907 11.219 66.799 10.838 66.799 10.496V9.62302Z" fill="white"/>
<g clip-path="url(#clip0_91_1789)">
<path fill-rule="evenodd" clip-rule="evenodd" d="M17.6309 18.4263C17.6309 17.692 17.4442 17.0096 17.118 16.4155C15.9425 14.2751 15.9425 11.4114 17.118 9.27098C17.4442 8.67691 17.6309 7.99455 17.6309 7.26025C17.6309 4.9477 15.7562 3.073 13.4436 3.073C11.131 3.073 9.25635 4.9477 9.25635 7.26025C9.25635 7.99455 9.44298 8.67691 9.76923 9.27098C10.9447 11.4114 10.9447 14.2751 9.76923 16.4155C9.44298 17.0096 9.25635 17.692 9.25635 18.4263C9.25635 20.7388 11.131 22.6135 13.4436 22.6135C15.7562 22.6135 17.6309 20.7388 17.6309 18.4263ZM19.5648 15.0718C18.8489 13.7682 18.8489 11.9183 19.5648 10.6147C20.1115 9.61928 20.4224 8.47607 20.4224 7.26025C20.4224 3.40599 17.2979 0.281494 13.4436 0.281494C9.58934 0.281494 6.46484 3.40599 6.46484 7.26025C6.46484 8.47608 6.77576 9.61928 7.32241 10.6147C8.0383 11.9183 8.0383 13.7682 7.32241 15.0718C6.77576 16.0672 6.46484 17.2104 6.46484 18.4263C6.46484 22.2805 9.58934 25.405 13.4436 25.405C17.2979 25.405 20.4224 22.2805 20.4224 18.4263C20.4224 17.2104 20.1115 16.0672 19.5648 15.0718Z" fill="white"/>
</g>
<defs>
<clipPath id="clip0_91_1789">
<rect width="25.1235" height="25.1235" fill="white" transform="translate(0.9375 0.281494)"/>
</clipPath>
</defs>
</svg>
